<svg xmlns="http://www.w3.org/2000/svg" viewBox="0 0 1450 1500" font-family="'Courier New', monospace">
  <defs>
    <style>
      .room { fill: #f0ece0; stroke: #5a4a2a; stroke-width: 2.5; rx: 8; }
      .room-secret { fill: #f5f0e0; stroke: #5a4a2a; stroke-width: 2.5; rx: 8; stroke-dasharray: 6,3; }
      .room-outdoor { fill: #e8f5e8; stroke: #2a6a2a; stroke-width: 2.5; rx: 8; }
      .room-danger { fill: #fce8e8; stroke: #aa2222; stroke-width: 2.5; rx: 8; }
      .room-label { fill: #2a2010; font-size: 16px; font-weight: bold; text-anchor: middle; }
      .room-sm { fill: #2a2010; font-size: 13px; font-weight: bold; text-anchor: middle; }
      .desc { fill: #5a5040; font-size: 10px; text-anchor: middle; }
      .treasure { fill: #9a7a00; font-size: 11px; text-anchor: middle; }
      .item { fill: #2a5a8a; font-size: 10px; text-anchor: middle; }
      .danger-text { fill: #bb2222; font-size: 10px; text-anchor: middle; }
      .conn { stroke: #5a4a2a; stroke-width: 2; fill: none; }
      .conn-secret { stroke: #5a4a2a; stroke-width: 2; fill: none; stroke-dasharray: 5,4; }
      .conn-patch { stroke: #aa2222; stroke-width: 2; fill: none; stroke-dasharray: 4,3; }
      .dir { fill: #7a6a4a; font-size: 10px; font-weight: bold; text-anchor: middle; }
      .area-label { fill: #5a4a2a; font-size: 16px; font-weight: bold; text-anchor: middle; letter-spacing: 3px; opacity: 0.3; }
      .area-box { fill: none; stroke: #5a4a2a; stroke-width: 1; stroke-dasharray: 8,6; opacity: 0.2; rx: 12; }
      .title { fill: #2a2010; font-size: 34px; font-weight: bold; text-anchor: middle; letter-spacing: 5px; }
      .subtitle { fill: #5a5040; font-size: 13px; text-anchor: middle; letter-spacing: 2px; }
      .note { fill: #7a6a4a; font-size: 9px; text-anchor: middle; font-style: italic; }
      .whimsy { fill: #2a2010; font-size: 18px; text-anchor: middle; }
      .legend-text { fill: #4a4030; font-size: 11px; }
    </style>
  </defs>

  <rect width="1450" height="1500" fill="#ffffff"/>

  <!-- Title -->
  <text x="725" y="42" class="title">H A U N T</text>
  <text x="725" y="62" class="subtitle">Part 2: Inside the Mansion</text>
  <text x="500" y="42" class="whimsy" font-size="20" opacity="0.3">&#x1F987;</text>
  <text x="940" y="46" class="whimsy" font-size="15" opacity="0.25">&#x1F987;</text>
  <text x="1400" y="42" class="whimsy" font-size="22" opacity="0.2">&#x1F47B;</text>

  <!-- ============================================================ -->
  <!--                     TOP FLOOR                                 -->
  <!-- ============================================================ -->
  <rect x="330" y="78" width="810" height="135" class="area-box"/>
  <text x="735" y="98" class="area-label">TOP FLOOR</text>

  <!-- Laboratory -->
  <rect x="440" y="105" width="310" height="95" class="room-danger"/>
  <text x="595" y="128" class="room-label">&#x1F9EA; LABORATORY</text>
  <text x="595" y="144" class="desc">Huge slab, lever switch, glass dome painted black</text>
  <text x="595" y="158" class="danger-text">&#x26A0; Monster on slab &amp; Dracula bat in dome</text>
  <text x="595" y="172" class="treasure">&#x1F48D; Ring (sunlight kills bat) &#x1F3C8; Football</text>
  <text x="595" y="186" class="note">Kick football &#x2192; dome breaks &#x2192; sunlight enters</text>

  <!-- Bar -->
  <rect x="800" y="112" width="220" height="80" class="room-secret"/>
  <text x="910" y="136" class="room-sm">BAR</text>
  <text x="910" y="152" class="desc">"There isn't any booze."</text>
  <text x="910" y="166" class="item">&#x1F37E; Bottle (turpentine), Stool</text>
  <text x="910" y="180" class="note">Monster walks through west wall</text>

  <!-- Lab to Bar -->
  <line x1="750" y1="152" x2="800" y2="152" class="conn-secret"/>
  <text x="775" y="147" class="dir">W</text>
  <text x="775" y="137" class="note">give candy to monster</text>

  <!-- ============================================================ -->
  <!--                     UPPER FLOOR                               -->
  <!-- ============================================================ -->
  <rect x="80" y="240" width="1080" height="200" class="area-box"/>
  <text x="620" y="260" class="area-label">UPPER FLOOR</text>

  <!-- Long Hall -->
  <rect x="100" y="280" width="220" height="65" class="room"/>
  <text x="210" y="302" class="room-sm">LONG HALL</text>
  <text x="210" y="316" class="desc">Narrow hallway, boarded doorway south</text>
  <text x="210" y="330" class="note">East to upper hall</text>

  <!-- Upper Hall -->
  <rect x="380" y="275" width="300" height="80" class="room"/>
  <text x="530" y="298" class="room-label">UPPER HALL</text>
  <text x="530" y="314" class="desc">Circular staircase up, stone wall east</text>
  <text x="530" y="328" class="desc">Dark room S, hall W, room N</text>
  <text x="530" y="342" class="note">One loose brick in the east wall...</text>

  <!-- Secret Room -->
  <rect x="740" y="280" width="240" height="65" class="room-secret"/>
  <text x="860" y="302" class="room-sm">SECRET ROOM</text>
  <text x="860" y="316" class="treasure">&#x1F33F; Marijuana</text>
  <text x="860" y="330" class="note">Pull brick in upper hall to reveal</text>

  <!-- Long Hall to Upper Hall -->
  <line x1="320" y1="312" x2="380" y2="312" class="conn"/>
  <text x="350" y="306" class="dir">E</text>

  <!-- Upper Hall to Secret Room -->
  <line x1="680" y1="312" x2="740" y2="312" class="conn-secret"/>
  <text x="710" y="306" class="dir">E</text>

  <!-- Lab to Upper Hall -->
  <line x1="595" y1="200" x2="595" y2="218" class="conn"/>
  <line x1="595" y1="218" x2="530" y2="218" class="conn" stroke-opacity="0.3"/>
  <line x1="530" y1="218" x2="530" y2="275" class="conn"/>
  <text x="543" y="250" class="dir">U/D</text>

  <!-- Dark Room -->
  <rect x="440" y="390" width="200" height="60" class="room-danger"/>
  <text x="540" y="410" class="room-sm">DARK ROOM</text>
  <text x="540" y="424" class="danger-text">&#x1F987; Dracula sleeps here</text>
  <text x="540" y="438" class="note">Exit: north</text>

  <!-- Upper Hall to Dark Room -->
  <line x1="530" y1="355" x2="530" y2="390" class="conn"/>
  <text x="542" y="375" class="dir">S</text>

  <!-- Dull Room -->
  <rect x="700" y="390" width="200" height="60" class="room"/>
  <text x="800" y="410" class="room-sm">DULL ROOM</text>
  <text x="800" y="424" class="treasure">&#x1F9C0; Cheese</text>
  <text x="800" y="438" class="note">Exit: south</text>

  <!-- Upper Hall to Dull Room -->
  <line x1="640" y1="315" x2="800" y2="315" class="conn" stroke-opacity="0.3"/>
  <line x1="800" y1="315" x2="800" y2="390" class="conn"/>
  <text x="810" y="355" class="dir">N</text>

  <!-- ============================================================ -->
  <!--                   BEDROOM WING (left side)                    -->
  <!-- ============================================================ -->
  <rect x="60" y="380" width="340" height="400" class="area-box"/>
  <text x="230" y="400" class="area-label" font-size="13">BEDROOM WING</text>

  <!-- Balcony -->
  <rect x="80" y="410" width="200" height="55" class="room-outdoor"/>
  <text x="180" y="432" class="room-sm" style="fill: #2a6a2a;">BALCONY</text>
  <text x="180" y="446" class="desc">Doors missing, large doorway</text>
  <text x="180" y="458" class="note">&#x2195; Ivy to/from lawn (see grounds map)</text>

  <!-- Bedroom -->
  <rect x="80" y="495" width="250" height="80" class="room"/>
  <text x="205" y="517" class="room-label">&#x1F6CF; BEDROOM</text>
  <text x="205" y="533" class="desc">King-size bed, mirror on ceiling</text>
  <text x="205" y="547" class="item">Mattress (floats when dropped!)</text>
  <text x="205" y="561" class="note">Jump on bed &#x2192; shatter mirror</text>

  <!-- Long Hall to Bedroom (patched) -->
  <line x1="210" y1="345" x2="210" y2="365" class="conn-patch"/>
  <line x1="210" y1="365" x2="80" y2="365" class="conn-patch" stroke-opacity="0.4"/>
  <line x1="80" y1="365" x2="80" y2="537" class="conn-patch" stroke-opacity="0.4"/>
  <line x1="80" y1="537" x2="80" y2="537" class="conn-patch"/>
  <text x="150" y="360" class="note">force through boards &#x2193;</text>

  <!-- Balcony to Bedroom -->
  <line x1="180" y1="465" x2="180" y2="495" class="conn"/>
  <text x="192" y="483" class="dir">N</text>

  <!-- Balcony jump note -->
  <text x="310" y="445" class="danger-text" font-size="9">&#x2193; Jump = death!</text>
  <text x="310" y="457" class="note">(unless mattress below)</text>

  <!-- Bathroom -->
  <rect x="80" y="605" width="250" height="80" class="room"/>
  <text x="205" y="627" class="room-label">&#x1F6C1; BATHROOM</text>
  <text x="205" y="643" class="desc">Bathtub and toilet</text>
  <text x="205" y="657" class="treasure">&#x1F48E; Gem (wash with soap in bathtub)</text>
  <text x="205" y="671" class="note">&#x1F6BD; Sit on toilet + flush &#x2192; spin!</text>

  <!-- Bedroom to Bathroom -->
  <line x1="205" y1="575" x2="205" y2="605" class="conn"/>
  <text x="217" y="593" class="dir">E</text>

  <!-- Backroom -->
  <rect x="80" y="715" width="250" height="55" class="room-secret"/>
  <text x="205" y="737" class="room-sm">&#x1F6BD; BACKROOM</text>
  <text x="205" y="751" class="treasure">&#x1FA99; Jade</text>
  <text x="205" y="763" class="note">Flush again &#x2192; spin back to bathroom</text>

  <!-- Bathroom to Backroom -->
  <line x1="205" y1="685" x2="205" y2="715" class="conn-secret"/>
  <text x="217" y="703" class="dir">&#x1F504;</text>

  <!-- ============================================================ -->
  <!--                     GROUND FLOOR                              -->
  <!-- ============================================================ -->
  <rect x="370" y="480" width="1020" height="430" class="area-box"/>
  <text x="880" y="500" class="area-label">GROUND FLOOR</text>

  <!-- Smelly Room -->
  <rect x="395" y="520" width="140" height="80" class="room"/>
  <text x="465" y="540" class="room-sm">SMELLY ROOM</text>
  <text x="465" y="554" class="desc">Reeks of paint</text>
  <text x="465" y="568" class="desc">Wood panels</text>
  <text x="465" y="582" class="treasure">&#x1F5BC; Painting</text>

  <!-- Stairs -->
  <rect x="570" y="520" width="220" height="75" class="room-danger"/>
  <text x="680" y="542" class="room-sm">&#x1FA9C; STAIRS</text>
  <text x="680" y="556" class="desc">Squeaky! About to collapse!</text>
  <text x="680" y="570" class="danger-text">&#x26A0; Jump &#x2192; CRASH!</text>
  <text x="680" y="584" class="note">Collapse reveals path to back hall</text>

  <!-- Back Hall -->
  <rect x="870" y="520" width="240" height="65" class="room"/>
  <text x="990" y="542" class="room-sm">BACK HALL</text>
  <text x="990" y="556" class="desc">Connects kitchen &amp; dining room</text>
  <text x="990" y="570" class="note">Kitchen E, dining room W</text>

  <!-- Stairs to Back Hall (after collapse) -->
  <line x1="790" y1="557" x2="870" y2="557" class="conn-patch"/>
  <text x="830" y="551" class="dir">N</text>
  <text x="830" y="541" class="note">after collapse</text>

  <!-- Upper Hall to Stairs -->
  <line x1="530" y1="355" x2="530" y2="485" class="conn" stroke-opacity="0.2"/>
  <line x1="530" y1="485" x2="680" y2="485" class="conn" stroke-opacity="0.3"/>
  <line x1="680" y1="485" x2="680" y2="520" class="conn"/>
  <text x="692" y="508" class="dir">D/U</text>

  <!-- Dark Hall -->
  <rect x="395" y="640" width="140" height="65" class="room"/>
  <text x="465" y="660" class="room-sm">DARK HALL</text>
  <text x="465" y="674" class="desc">Scent of fresh paint</text>
  <text x="465" y="688" class="danger-text">&#x1F47B; Ghost!</text>

  <!-- Smelly Room to Dark Hall -->
  <line x1="465" y1="600" x2="465" y2="640" class="conn"/>
  <text x="477" y="623" class="dir">W</text>

  <!-- Main Hall -->
  <rect x="570" y="630" width="260" height="80" class="room"/>
  <text x="700" y="654" class="room-label">MAIN HALL</text>
  <text x="700" y="670" class="desc">Foyer S, hall W, library E, stairs N</text>
  <text x="700" y="686" class="treasure">&#x1FA91; Chair (treasure!)</text>
  <text x="700" y="700" class="note">Central hub of the ground floor</text>

  <!-- Stairs to Main Hall -->
  <line x1="680" y1="595" x2="680" y2="630" class="conn"/>
  <text x="692" y="616" class="dir">D/S</text>

  <!-- Dark Hall to Main Hall -->
  <line x1="535" y1="672" x2="570" y2="672" class="conn"/>
  <text x="553" y="666" class="dir">W</text>

  <!-- Kitchen -->
  <rect x="870" y="630" width="240" height="80" class="room"/>
  <text x="990" y="654" class="room-sm">&#x1F373; KITCHEN</text>
  <text x="990" y="670" class="desc">Boarded windows, fridge, vent duct</text>
  <text x="990" y="686" class="treasure">&#x1F9CA; Cube (LSD! in fridge)</text>
  <text x="990" y="700" class="note">Climb fridge &#x2192; enter duct</text>

  <!-- Back Hall to Kitchen -->
  <line x1="990" y1="585" x2="990" y2="630" class="conn"/>
  <text x="1002" y="610" class="dir">E</text>

  <!-- Duct -->
  <rect x="1150" y="650" width="160" height="45" class="room"/>
  <text x="1230" y="672" class="room-sm" font-size="11">DUCT</text>
  <text x="1230" y="686" class="desc">Ventilation duct</text>

  <!-- Kitchen to Duct -->
  <line x1="1110" y1="672" x2="1150" y2="672" class="conn"/>
  <text x="1130" y="666" class="dir">&#x2191;</text>

  <!-- Dining Room -->
  <rect x="870" y="750" width="240" height="65" class="room"/>
  <text x="990" y="772" class="room-sm">&#x1F37D; DINING ROOM</text>
  <text x="990" y="788" class="desc">Large, very high ceiling</text>
  <text x="990" y="802" class="treasure">&#x1F56F; Candlesticks</text>

  <!-- Back Hall to Dining Room -->
  <path d="M 870 560 L 850 560 L 850 782 L 870 782" class="conn"/>
  <text x="838" y="670" class="dir">W</text>

  <!-- Library -->
  <rect x="395" y="750" width="240" height="80" class="room"/>
  <text x="515" y="772" class="room-label">&#x1F4DA; LIBRARY</text>
  <text x="515" y="788" class="desc">Walls lined with books (mostly fake)</text>
  <text x="515" y="802" class="item">&#x1F9D1; Bust of Homer &#x2014; turn it!</text>
  <text x="515" y="816" class="treasure">&#x1F4D6; Book: "Vampires I Have Known"</text>

  <!-- Main Hall to Library -->
  <path d="M 610 710 L 610 740 L 515 740 L 515 750" class="conn"/>
  <text x="560" y="737" class="dir">E</text>

  <!-- Foyer -->
  <rect x="660" y="750" width="210" height="75" class="room"/>
  <text x="765" y="772" class="room-label">FOYER</text>
  <text x="765" y="788" class="desc">"YOU WON'T GET OUT BY A DOOR"</text>
  <text x="765" y="802" class="item">&#x1F36C; Candy (pins in the Snickers!)</text>
  <text x="765" y="816" class="note">&#x2193; Door slams shut behind you!</text>

  <!-- Main Hall to Foyer -->
  <path d="M 750 710 L 750 740 L 765 740 L 765 750" class="conn"/>
  <text x="758" y="737" class="dir">S</text>

  <!-- Closet -->
  <rect x="660" y="840" width="100" height="50" class="room"/>
  <text x="710" y="860" class="room-sm" font-size="11">CLOSET</text>
  <text x="710" y="876" class="item">&#x1F93F; Wetsuit</text>

  <!-- Foyer to Closet -->
  <line x1="710" y1="825" x2="710" y2="840" class="conn"/>
  <text x="722" y="836" class="dir">W</text>

  <!-- Foyer to Outside -->
  <text x="765" y="840" class="note">&#x2193; Front Door (see grounds map)</text>

  <!-- ============================================================ -->
  <!--                   SECRET UNDERGROUND                          -->
  <!-- ============================================================ -->
  <rect x="60" y="810" width="300" height="230" class="area-box"/>
  <text x="210" y="830" class="area-label" font-size="13">SECRET PATH</text>

  <!-- Secret Stairs -->
  <rect x="80" y="845" width="260" height="60" class="room-secret"/>
  <text x="210" y="867" class="room-sm">SECRET STAIRS</text>
  <text x="210" y="881" class="desc">Pole through hole in ceiling</text>
  <text x="210" y="899" class="note">"That isn't a bat pole, ROBIN."</text>

  <!-- Library to Secret Stairs -->
  <line x1="395" y1="800" x2="370" y2="800" class="conn-secret"/>
  <line x1="370" y1="800" x2="370" y2="875" class="conn-secret"/>
  <line x1="370" y1="875" x2="340" y2="875" class="conn-secret"/>
  <text x="382" y="840" class="dir">E</text>
  <text x="382" y="853" class="note">turn bust</text>

  <!-- Wine Cellar -->
  <rect x="80" y="930" width="260" height="60" class="room-secret"/>
  <text x="210" y="952" class="room-sm">&#x1F377; WINE CELLAR</text>
  <text x="210" y="966" class="desc">Dusty bottles line the walls</text>
  <text x="210" y="983" class="treasure">&#x1F942; Corkscrew (diamond-studded!)</text>

  <!-- Secret Stairs to Wine Cellar -->
  <line x1="210" y1="905" x2="210" y2="930" class="conn-secret"/>
  <text x="222" y="920" class="dir">D</text>

  <!-- Wine Racks -->
  <rect x="80" y="1000" width="260" height="25" class="room-secret" opacity="0.6"/>
  <text x="210" y="1017" class="note">Wine Racks &#x2192; &#x221E; (infinite east!)</text>
  <line x1="210" y1="990" x2="210" y2="1000" class="conn-secret"/>

  <!-- ============================================================ -->
  <!--                  TREASURE MANIFEST                            -->
  <!-- ============================================================ -->
  <rect x="60" y="1070" width="570" height="260" fill="#fffdf0" stroke="#9a7a00" stroke-width="1.5" rx="8"/>
  <text x="345" y="1098" class="room-label" style="fill: #9a7a00;" font-size="15">&#x1F3C6; TREASURE MANIFEST</text>

  <text x="90" y="1125" class="treasure" style="text-anchor: start;" font-size="11">&#x1F48D; Ring ............. Laboratory (defeat Dracula)</text>
  <text x="90" y="1145" class="treasure" style="text-anchor: start;" font-size="11">&#x1F4D6; Book ............. Library</text>
  <text x="90" y="1165" class="treasure" style="text-anchor: start;" font-size="11">&#x1F5BC; Painting ......... Smelly Room</text>
  <text x="90" y="1185" class="treasure" style="text-anchor: start;" font-size="11">&#x1FA91; Chair ............ Main Hall</text>
  <text x="90" y="1205" class="treasure" style="text-anchor: start;" font-size="11">&#x1F56F; Candlesticks ..... Dining Room</text>
  <text x="90" y="1225" class="treasure" style="text-anchor: start;" font-size="11">&#x1F9CA; Cube (LSD!) ...... Kitchen (in fridge)</text>
  <text x="90" y="1245" class="treasure" style="text-anchor: start;" font-size="11">&#x1F9C0; Cheese ........... Dull Room</text>
  <text x="90" y="1265" class="treasure" style="text-anchor: start;" font-size="11">&#x1F33F; Marijuana ........ Secret Room</text>
  <text x="90" y="1285" class="treasure" style="text-anchor: start;" font-size="11">&#x1FA99; Jade ............. Backroom (toilet spin!)</text>
  <text x="90" y="1305" class="treasure" style="text-anchor: start;" font-size="11">&#x1F48E; Gem .............. Bathroom (wash w/ soap)</text>
  <text x="90" y="1325" class="treasure" style="text-anchor: start;" font-size="11">&#x1F942; Corkscrew ........ Wine Cellar</text>

  <!-- ============================================================ -->
  <!--                        LEGEND                                 -->
  <!-- ============================================================ -->
  <rect x="680" y="1070" width="560" height="170" fill="#f8f6f0" stroke="#5a4a2a" stroke-width="1.5" rx="8"/>
  <text x="960" y="1098" class="room-label" font-size="14">LEGEND</text>

  <rect x="710" y="1115" width="28" height="16" class="room"/>
  <text x="750" y="1128" class="legend-text" text-anchor="start">Normal room</text>

  <rect x="710" y="1140" width="28" height="16" class="room-secret"/>
  <text x="750" y="1153" class="legend-text" text-anchor="start">Secret / hidden room</text>

  <rect x="710" y="1165" width="28" height="16" class="room-outdoor"/>
  <text x="750" y="1178" class="legend-text" text-anchor="start">Outdoor area</text>

  <rect x="710" y="1190" width="28" height="16" class="room-danger"/>
  <text x="750" y="1203" class="legend-text" text-anchor="start">Dangerous area</text>

  <line x1="960" y1="1127" x2="1010" y2="1127" class="conn"/>
  <text x="1020" y="1131" class="legend-text" text-anchor="start">Normal passage</text>

  <line x1="960" y1="1152" x2="1010" y2="1152" class="conn-secret"/>
  <text x="1020" y="1156" class="legend-text" text-anchor="start">Secret passage</text>

  <line x1="960" y1="1177" x2="1010" y2="1177" class="conn-patch"/>
  <text x="1020" y="1181" class="legend-text" text-anchor="start">Patched passage (bug fix)</text>

  <text x="975" y="1205" class="treasure">&#x1F48E;</text>
  <text x="1020" y="1205" class="legend-text" text-anchor="start">Treasure (max score: 440)</text>

  <!-- ============================================================ -->
  <!--                      HELPFUL NOTES                            -->
  <!-- ============================================================ -->
  <rect x="680" y="1260" width="560" height="170" fill="#f8f6f0" stroke="#5a4a2a" stroke-width="1" rx="8"/>
  <text x="960" y="1287" class="room-label" font-size="14">&#x1F4AC; NOTES &amp; TIPS</text>

  <text x="710" y="1310" class="desc" style="text-anchor: start;">&#x2022; Jump on stairs to collapse them &#x2192; back hall access</text>
  <text x="710" y="1328" class="desc" style="text-anchor: start;">&#x2022; Turn the Homer bust to open the secret bookcase</text>
  <text x="710" y="1346" class="desc" style="text-anchor: start;">&#x2022; Pull the loose brick to open the stone wall</text>
  <text x="710" y="1364" class="desc" style="text-anchor: start;">&#x2022; Give candy to the monster &#x2192; opens bar</text>
  <text x="710" y="1382" class="desc" style="text-anchor: start;">&#x2022; Kick football through dome &#x2192; sunlight kills Dracula</text>
  <text x="710" y="1400" class="desc" style="text-anchor: start;">&#x2022; Drop mattress from balcony before jumping!</text>
  <text x="710" y="1418" class="desc" style="text-anchor: start;">&#x2022; Sit on toilet, flush &#x2192; secret backroom with jade</text>

  <!-- ============================================================ -->
  <!--                      FLAVOR / FOOTER                          -->
  <!-- ============================================================ -->
  <text x="300" y="1370" class="note" font-size="11" opacity="0.4">"You feel a chill run down your spine,</text>
  <text x="300" y="1386" class="note" font-size="11" opacity="0.4"> and you doubt your own sanity."</text>

  <text x="725" y="1470" class="subtitle" opacity="0.3" font-size="10">834 production rules ~ 6,744 lines of OPS5 ~ John Laird, 1979-1983</text>

  <text x="50" y="1470" class="whimsy" font-size="18" opacity="0.15">&#x1F480;</text>
  <text x="1400" y="1470" class="whimsy" font-size="16" opacity="0.15">&#x1F578;</text>

</svg>
